<?xml version="1.0" encoding="UTF-8"?> <svg xmlns="http://www.w3.org/2000/svg" width="597" height="235" viewBox="0 0 597 235" fill="none"><path d="M571.573 64.8594H585.284V132.905C585.284 152.383 576.57 161.866 560.424 161.866H541.715C523.646 161.866 512.369 150.845 512.369 128.035C512.369 105.225 523.646 94.2049 541.715 94.2049H571.573V64.8594ZM556.451 148.667C567.344 148.667 571.573 143.797 571.573 132.264V107.276H542.996C531.335 107.276 526.081 113.427 526.081 128.035C526.081 142.644 531.335 148.667 542.996 148.667H556.451Z" fill="#262B40"></path><path d="M485.098 94.2042H498.681V161.865H485.098V94.2042ZM485.098 68.7031H498.809V84.4651H485.098V68.7031Z" fill="#262B40"></path><path d="M393.633 94.2031H407.985L430.539 148.537C431.052 149.947 432.205 150.587 433.871 150.587C435.665 150.587 436.818 149.947 437.459 148.537L460.91 94.2031H475.518L449.376 154.56C446.557 160.967 441.56 163.402 433.871 163.402C426.054 163.402 421.056 160.839 418.493 154.56L393.633 94.2031Z" fill="#262B40"></path><path d="M340.791 94.2031H359.5C375.647 94.2031 384.361 103.686 384.361 123.164V189.031H370.649V161.864H340.791C322.722 161.864 311.445 150.844 311.445 128.034C311.445 105.224 322.722 94.2031 340.791 94.2031ZM325.157 128.034C325.157 142.642 330.411 148.665 342.072 148.665H370.649V123.805C370.649 112.144 366.42 107.274 355.528 107.274H342.072C330.411 107.274 325.157 113.425 325.157 128.034Z" fill="#262B40"></path><path d="M284.174 94.2042H297.757V161.865H284.174V94.2042ZM284.174 68.7031H297.885V84.4651H284.174V68.7031Z" fill="#262B40"></path><path d="M206.893 75.3672H222.014V131.88C222.014 140.209 226.115 146.745 239.698 146.745H273.272V161.866H238.801C215.863 161.866 206.893 149.308 206.893 132.008V75.3672Z" fill="#262B40"></path><path fill-rule="evenodd" clip-rule="evenodd" d="M569.936 63.2227H586.921V132.905C586.921 142.855 584.699 150.548 580.141 155.766C575.549 161.025 568.823 163.502 560.424 163.502H541.714C532.341 163.502 524.515 160.633 519.053 154.603C513.613 148.597 510.732 139.69 510.732 128.035C510.732 116.381 513.613 107.474 519.053 101.468C524.515 95.437 532.341 92.5681 541.714 92.5681H569.936V63.2227ZM573.209 66.4957V95.8412H541.714C533.019 95.8412 526.172 98.4826 521.479 103.665C516.763 108.871 514.005 116.88 514.005 128.035C514.005 139.191 516.763 147.199 521.479 152.406C526.172 157.588 533.019 160.229 541.714 160.229H560.424C568.171 160.229 573.875 157.965 577.676 153.613C581.512 149.221 583.648 142.433 583.648 132.905V66.4957H573.209ZM528.902 111.137C532.096 107.259 536.885 105.639 542.996 105.639H573.209V132.264C573.209 138.166 572.14 142.777 569.307 145.892C566.439 149.044 562.101 150.303 556.451 150.303H542.996C536.895 150.303 532.105 148.721 528.907 144.876C525.769 141.103 524.444 135.474 524.444 128.035C524.444 120.596 525.77 114.939 528.902 111.137ZM531.428 113.218C529.018 116.143 527.717 120.866 527.717 128.035C527.717 135.206 529.019 139.892 531.423 142.783C533.768 145.602 537.435 147.03 542.996 147.03H556.451C561.694 147.03 564.916 145.855 566.886 143.689C568.89 141.486 569.936 137.896 569.936 132.264V108.912H542.996C537.445 108.912 533.777 110.367 531.428 113.218Z" fill="#262B40"></path><path fill-rule="evenodd" clip-rule="evenodd" d="M483.461 67.0664H500.446V86.1014H483.461V67.0664ZM486.734 70.3394V82.8284H497.173V70.3394H486.734ZM483.461 92.5675H500.317V163.502H483.461V92.5675ZM486.734 95.8405V160.229H497.044V95.8405H486.734Z" fill="#262B40"></path><path fill-rule="evenodd" clip-rule="evenodd" d="M391.189 92.5664H409.078L432.065 147.943L432.077 147.978C432.218 148.365 432.407 148.563 432.615 148.687C432.849 148.828 433.238 148.951 433.871 148.951C434.582 148.951 435.016 148.823 435.29 148.667C435.539 148.526 435.767 148.3 435.964 147.872C435.966 147.868 435.968 147.864 435.97 147.86L459.834 92.5664H478.011L450.879 155.21L450.875 155.219C449.343 158.7 447.164 161.209 444.239 162.818C441.348 164.407 437.873 165.038 433.871 165.038C429.8 165.038 426.289 164.374 423.413 162.764C420.501 161.134 418.381 158.614 416.979 155.18C416.979 155.179 416.979 155.179 416.979 155.178L391.189 92.5664ZM396.077 95.8394L420.007 153.937L420.009 153.941C421.17 156.785 422.83 158.686 425.012 159.908C427.229 161.149 430.125 161.765 433.871 161.765C437.559 161.765 440.427 161.179 442.662 159.95C444.862 158.74 446.59 156.829 447.877 153.905C447.878 153.904 447.878 153.902 447.879 153.901L473.027 95.8394H461.986L438.956 149.2L438.949 149.214C438.507 150.188 437.84 150.984 436.906 151.514C435.994 152.031 434.954 152.224 433.871 152.224C432.839 152.224 431.818 152.026 430.931 151.494C430.029 150.953 429.389 150.139 429.015 149.134L406.893 95.8394H396.077Z" fill="#262B40"></path><path fill-rule="evenodd" clip-rule="evenodd" d="M320.555 103.663C315.839 108.87 313.082 116.878 313.082 128.034C313.082 139.189 315.839 147.197 320.555 152.404C325.249 157.586 332.095 160.228 340.791 160.228H372.285V187.395H382.724V123.164C382.724 113.636 380.589 106.848 376.752 102.456C372.951 98.1033 367.248 95.8394 359.5 95.8394H340.791C332.095 95.8394 325.249 98.4808 320.555 103.663ZM318.129 101.466C323.591 95.4353 331.417 92.5664 340.791 92.5664H359.5C367.899 92.5664 374.625 95.0439 379.218 100.303C383.775 105.521 385.997 113.214 385.997 123.164V190.668H369.012V163.501H340.791C331.417 163.501 323.591 160.632 318.129 154.601C312.689 148.595 309.809 139.688 309.809 128.034C309.809 116.379 312.689 107.472 318.129 101.466ZM327.978 111.135C331.172 107.258 335.961 105.637 342.072 105.637H355.527C361.177 105.637 365.518 106.896 368.387 110.069C371.218 113.2 372.285 117.843 372.285 123.805V150.302H342.072C335.971 150.302 331.181 148.719 327.983 144.874C324.846 141.102 323.52 135.472 323.52 128.034C323.52 120.594 324.846 114.937 327.978 111.135ZM330.505 113.216C328.094 116.142 326.793 120.864 326.793 128.034C326.793 135.204 328.095 139.89 330.5 142.781C332.844 145.6 336.512 147.029 342.072 147.029H369.012V123.805C369.012 118.105 367.965 114.483 365.959 112.264C363.99 110.086 360.77 108.91 355.527 108.91H342.072C336.521 108.91 332.853 110.366 330.505 113.216Z" fill="#262B40"></path><path fill-rule="evenodd" clip-rule="evenodd" d="M282.537 67.0664H299.522V86.1014H282.537V67.0664ZM285.81 70.3394V82.8284H296.249V70.3394H285.81ZM282.537 92.5675H299.394V163.502H282.537V92.5675ZM285.81 95.8405V160.229H296.121V95.8405H285.81Z" fill="#262B40"></path><path fill-rule="evenodd" clip-rule="evenodd" d="M205.256 73.7305H223.65V131.879C223.65 135.797 224.613 139.013 226.909 141.268C229.211 143.53 233.142 145.108 239.698 145.108H274.909V163.502H238.801C227.039 163.502 218.576 160.277 213.066 154.56C207.568 148.855 205.256 140.922 205.256 132.008V73.7305ZM208.529 77.0035V132.008C208.529 140.393 210.702 147.389 215.423 152.288C220.133 157.175 227.624 160.229 238.801 160.229H271.636V148.381H239.698C232.67 148.381 227.759 146.691 224.615 143.603C221.464 140.508 220.377 136.292 220.377 131.879V77.0035H208.529Z" fill="#262B40"></path><path d="M17.9038 108.267L6.82108 121.433L56.9087 163.657L68.9907 151.332L17.9038 108.267Z" fill="#3C92F5"></path><path d="M143.478 168.988L154.56 155.822L91.4324 102.682L80.8236 116.247L143.478 168.988Z" fill="#3C92F5"></path><path d="M19.0684 154.256C21.7674 184.506 47.1823 208.22 78.1348 208.22C110.886 208.22 137.437 181.669 137.437 148.917C137.437 146.4 137.186 143.686 136.677 140.759L154.578 155.827C151.085 194.978 118.194 225.669 78.1348 225.669C35.746 225.669 1.38281 191.306 1.38281 148.917C1.38282 146.019 1.61219 143.027 2.05859 139.937L19.0684 154.256ZM78.1348 2.18359C81.7482 7.43008 85.279 12.5632 88.7168 17.585C121.08 64.8598 145.204 102.274 152.554 131.628L124.782 108.25C122.789 104.25 120.549 100.025 118.051 95.5645C107.834 77.3202 94.249 56.6691 78.1348 33.0293C62.0204 56.6692 48.4345 77.3201 38.2178 95.5645C29.6647 110.838 24.128 123.335 21.2441 133.592L6.80859 121.44C16.5799 93.7538 38.8204 59.5559 67.5527 17.585C70.9905 12.5632 74.5213 7.43004 78.1348 2.18359Z" fill="#3C92F5"></path><path d="M88.7784 167.965L30.0443 167.964L54.8463 139.407L88.7784 167.965Z" fill="#3C92F5"></path><path d="M88.7784 167.965L30.0443 167.964L54.8463 139.407L88.7784 167.965Z" fill="#3C92F5"></path><path d="M50.9068 91.1142L109.641 91.0839L84.8539 119.654L50.9068 91.1142Z" fill="#3C92F5"></path></svg> 